<svg width="16" height="16" viewBox="0 0 16 16" fill="none" xmlns="http://www.w3.org/2000/svg">
<mask id="mask0_256_2241" style="mask-type:alpha" maskUnits="userSpaceOnUse" x="0" y="0" width="16" height="16">
<rect width="16" height="16" fill="#D9D9D9"/>
</mask>
<g mask="url(#mask0_256_2241)">
<path d="M8.33333 11.9744L5.68717 13.1102C5.2855 13.282 4.90389 13.2491 4.54233 13.0116C4.18078 12.774 4 12.4399 4 12.0091V3.87191C4 3.53514 4.11667 3.25008 4.35 3.01675C4.58333 2.78341 4.86839 2.66675 5.20517 2.66675H11.4615C11.7983 2.66675 12.0833 2.78341 12.3167 3.01675C12.55 3.25008 12.6667 3.53514 12.6667 3.87191V12.0091C12.6667 12.4399 12.4859 12.774 12.1243 13.0116C11.7628 13.2491 11.3812 13.282 10.9795 13.1102L8.33333 11.9744Z" fill="currentColor"/>
</g>
</svg>
