<svg xmlns="http://www.w3.org/2000/svg" width="96" height="16" viewBox="0 0 96 16" fill="none">
          <path d="M6.41602 9.6V16H0V0H19.2481V16H12.832V9.6H6.41602ZM6.41602 3.2V6.4H12.832V3.2H6.41602Z" fill="#0A0A0A"/>
          <path d="M28.8204 9.6V16H22.4043V0H38.4444V3.2H41.6524V6.4H38.4444V9.6H41.6524V16H35.2364V9.6H28.8204ZM28.8204 3.2V6.4H35.2364V3.2H28.8204Z" fill="#0A0A0A"/>
          <path d="M51.2247 9.6V16H44.8087V0H51.2247V6.4H54.4327V3.2H57.6407V0H64.0568V3.2H60.8488V6.4H57.6407V9.6H60.8488V12.8H64.0568V16H57.6407V12.8H54.4327V9.6H51.2247Z" fill="#0A0A0A"/>
          <path d="M67.2131 16V0H73.6291V16H67.2131Z" fill="#0A0A0A"/>
          <path d="M76.7519 3.2V0H96V16H76.7519V6.4H89.584V3.2H76.7519ZM89.584 12.8V9.6H83.168V12.8H89.584Z" fill="#0A0A0A"/>
        </svg>