<svg width="16" height="16" viewBox="0 0 16 16" fill="none" xmlns="http://www.w3.org/2000/svg">
<mask id="mask0_211_4652" style="mask-type:alpha" maskUnits="userSpaceOnUse" x="0" y="0" width="16" height="16">
<rect width="16" height="16" fill="#D9D9D9"/>
</mask>
<g mask="url(#mask0_211_4652)">
<path d="M1.19885 11.3897C1.19885 11.0461 1.28752 10.7395 1.46485 10.4698C1.64219 10.2002 1.87902 9.9904 2.17535 9.84051C2.80891 9.53062 3.44596 9.29167 4.08652 9.12367C4.72719 8.95579 5.43124 8.87184 6.19869 8.87184C6.96624 8.87184 7.6703 8.95579 8.31085 9.12367C8.95152 9.29167 9.58863 9.53062 10.2222 9.84051C10.5185 9.9904 10.7554 10.2002 10.9327 10.4698C11.11 10.7395 11.1987 11.0461 11.1987 11.3897V11.859C11.1987 12.1273 11.1002 12.3632 10.9032 12.5667C10.7062 12.7701 10.4671 12.8718 10.1859 12.8718H2.21152C1.93041 12.8718 1.69135 12.7733 1.49435 12.5763C1.29735 12.3792 1.19885 12.1401 1.19885 11.859V11.3897ZM12.2744 12.8718C12.3581 12.7188 12.422 12.556 12.466 12.3833C12.51 12.2107 12.532 12.0359 12.532 11.859V11.3077C12.532 10.8701 12.4249 10.4531 12.2107 10.0565C11.9964 9.66006 11.6924 9.3199 11.2987 9.03601C11.7457 9.10267 12.1701 9.20584 12.5719 9.34551C12.9735 9.48528 13.3569 9.65045 13.7219 9.84101C14.0663 10.0248 14.3323 10.2414 14.5199 10.4908C14.7074 10.7402 14.8012 11.0125 14.8012 11.3077V11.859C14.8012 12.1401 14.7027 12.3792 14.5057 12.5763C14.3087 12.7733 14.0696 12.8718 13.7885 12.8718H12.2744ZM6.19869 7.79484C5.55702 7.79484 5.00774 7.5664 4.55085 7.10951C4.09396 6.65251 3.86552 6.10317 3.86552 5.46151C3.86552 4.81984 4.09396 4.27056 4.55085 3.81367C5.00774 3.35667 5.55702 3.12817 6.19869 3.12817C6.84035 3.12817 7.38969 3.35667 7.84669 3.81367C8.30358 4.27056 8.53202 4.81984 8.53202 5.46151C8.53202 6.10317 8.30358 6.65251 7.84669 7.10951C7.38969 7.5664 6.84035 7.79484 6.19869 7.79484ZM11.955 5.46151C11.955 6.10317 11.7266 6.65251 11.2697 7.10951C10.8128 7.5664 10.2635 7.79484 9.62185 7.79484C9.54663 7.79484 9.45091 7.78628 9.33469 7.76917C9.21835 7.75206 9.12263 7.73328 9.04752 7.71284C9.31041 7.39673 9.51246 7.04606 9.65369 6.66084C9.7948 6.27562 9.86535 5.87562 9.86535 5.46084C9.86535 5.04595 9.79335 4.64745 9.64935 4.26534C9.50535 3.88334 9.30474 3.53167 9.04752 3.21034C9.14319 3.17612 9.23891 3.1539 9.33469 3.14367C9.43035 3.13334 9.52608 3.12817 9.62185 3.12817C10.2635 3.12817 10.8128 3.35667 11.2697 3.81367C11.7266 4.27056 11.955 4.81984 11.955 5.46151Z" fill="currentColor"/>
</g>
</svg>
