<svg width="18" height="18" viewBox="0 0 18 18" fill="none" xmlns="http://www.w3.org/2000/svg">
<mask id="mask0_194_859" style="mask-type:alpha" maskUnits="userSpaceOnUse" x="0" y="0" width="18" height="18">
<rect width="18" height="18" fill="#D9D9D9"/>
</mask>
<g mask="url(#mask0_194_859)">
<path d="M12.4703 9.56251H3.9375C3.77788 9.56251 3.64425 9.50863 3.53662 9.40088C3.42887 9.29326 3.375 9.15963 3.375 9.00001C3.375 8.84038 3.42887 8.70676 3.53662 8.59913C3.64425 8.49138 3.77788 8.43751 3.9375 8.43751H12.4703L8.59331 4.56057C8.48181 4.44907 8.42675 4.31857 8.42813 4.16907C8.42963 4.01957 8.4885 3.88663 8.60475 3.77026C8.72113 3.66163 8.85287 3.60538 9 3.60151C9.14713 3.59763 9.27887 3.65388 9.39525 3.77026L14.1504 8.52544C14.2207 8.59569 14.2702 8.66976 14.2989 8.74763C14.3278 8.82551 14.3423 8.90963 14.3423 9.00001C14.3423 9.09038 14.3278 9.17451 14.2989 9.25238C14.2702 9.33026 14.2207 9.40432 14.1504 9.47457L9.39525 14.2298C9.29137 14.3336 9.16275 14.3868 9.00938 14.3891C8.856 14.3915 8.72113 14.3384 8.60475 14.2298C8.4885 14.1134 8.43037 13.9798 8.43037 13.8289C8.43037 13.6779 8.4885 13.5442 8.60475 13.4278L12.4703 9.56251Z" fill="#858585"/>
</g>
</svg>
