<svg width="32" height="32" viewBox="0 0 32 32" fill="none" xmlns="http://www.w3.org/2000/svg">
<mask id="mask0_194_1012" style="mask-type:alpha" maskUnits="userSpaceOnUse" x="0" y="0" width="32" height="32">
<rect width="32" height="32" fill="#D9D9D9"/>
</mask>
<g mask="url(#mask0_194_1012)">
<path d="M4.29452 23.2973C4.08763 23.0906 3.98974 22.8531 4.00085 22.5846C4.01196 22.3162 4.10985 22.0898 4.29452 21.9053L11.0202 15.0923C11.48 14.6239 12.0492 14.3896 12.7278 14.3896C13.4063 14.3896 13.9797 14.6239 14.4482 15.0923L17.7788 18.4436C17.856 18.5205 17.9501 18.559 18.0612 18.559C18.1723 18.559 18.2705 18.5205 18.3558 18.4436L25.5459 11.3333H22.5919C22.3081 11.3333 22.0705 11.2376 21.8792 11.0463C21.6876 10.8548 21.5919 10.6171 21.5919 10.3333C21.5919 10.0495 21.6876 9.81198 21.8792 9.62065C22.0705 9.42909 22.3081 9.33331 22.5919 9.33331H27.7199C28.0636 9.33331 28.3504 9.44831 28.5802 9.67831C28.8102 9.90831 28.9252 10.1951 28.9252 10.5386V15.6666C28.9252 15.9504 28.8294 16.1881 28.6379 16.3796C28.4465 16.571 28.209 16.6666 27.9252 16.6666C27.6414 16.6666 27.4039 16.5731 27.2125 16.386C27.021 16.1989 26.9252 15.9634 26.9252 15.6796V12.7383L19.7689 19.895C19.3089 20.3548 18.7396 20.5846 18.0612 20.5846C17.3825 20.5846 16.8133 20.3548 16.3535 19.895L13.0225 16.564C12.9456 16.4871 12.8474 16.4486 12.7278 16.4486C12.6081 16.4486 12.5097 16.4871 12.4329 16.564L5.69952 23.2973C5.50641 23.4906 5.27218 23.5873 4.99685 23.5873C4.72174 23.5873 4.48763 23.4906 4.29452 23.2973Z" fill="#1A1A1A"/>
</g>
</svg>
